<REAPER_PROJECT 0.1 "6.05/x64" 1586166100
  RIPPLE 0
  GROUPOVERRIDE 0 0 0
  AUTOXFADE 1
  ENVATTACH 1
  POOLEDENVATTACH 0
  MIXERUIFLAGS 11 48
  PEAKGAIN 1
  FEEDBACK 0
  PANLAW 1
  PROJOFFS 0 0 0
  MAXPROJLEN 0 600
  GRID 3199 8 1 8 1 0 0 0
  TIMEMODE 1 5 -1 30 0 0 -1
  VIDEO_CONFIG 0 0 256
  PANMODE 3
  CURSOR 34.15151927433908
  ZOOM 100 3343 0
  VZOOMEX 6 67
  USE_REC_CFG 0
  RECMODE 1
  SMPTESYNC 0 30 100 40 1000 300 0 0 1 0 0
  LOOP 0
  LOOPGRAN 0 4
  RECORD_PATH "" ""
  <RECORD_CFG
  >
  <APPLYFX_CFG
  >
  RENDER_FILE ""
  RENDER_PATTERN ""
  RENDER_FMT 0 2 0
  RENDER_1X 0
  RENDER_RANGE 1 0 0 18 1000
  RENDER_RESAMPLE 3 0 1
  RENDER_ADDTOPROJ 0
  RENDER_STEMS 0
  RENDER_DITHER 0
  TIMELOCKMODE 1
  TEMPOENVLOCKMODE 1
  ITEMMIX 0
  DEFPITCHMODE 589824 0
  TAKELANE 1
  SAMPLERATE 44100 0 0
  <RENDER_CFG
  >
  LOCK 1
  <METRONOME 6 2
    VOL 0.25 0.125
    FREQ 800 1600 1
    BEATLEN 4
    SAMPLES "" ""
    PATTERN 2863311530 2863311529
  >
  GLOBAL_AUTO -1
  TEMPO 120 4 4
  PLAYRATE 1 0 0.25 4
  SELECTION 0 0
  SELECTION2 0 0
  MASTERAUTOMODE 0
  MASTERTRACKHEIGHT 0 0
  MASTERPEAKCOL 16576
  MASTERMUTESOLO 0
  MASTERTRACKVIEW 0 0.6667 0.5 0.5 0 0 0 0 0 0
  MASTERHWOUT 0 0 1 0 0 0 0 -1
  MASTER_NCH 2 2
  MASTER_VOLUME 1 0 -1 -1 1
  MASTER_FX 1
  MASTER_SEL 0
  <MASTERPLAYSPEEDENV
    ACT 0 -1
    VIS 0 1 1
    LANEHEIGHT 0 0
    ARM 0
    DEFSHAPE 0 -1 -1
  >
  <TEMPOENVEX
    ACT 1 -1
    VIS 1 0 1
    LANEHEIGHT 0 0
    ARM 0
    DEFSHAPE 1 -1 -1
    PT 0.000000000000 45.0000112500 1 524294 0 1
  >
  <PROJBAY
  >
  <TRACK {6CC0AECC-A9BA-4C28-9A15-F6DCE9F7913F}
    NAME Una_furtiva_lagrima
    PEAKCOL 16576
    BEAT -1
    AUTOMODE 0
    VOLPAN 1 0 -1 -1 1
    MUTESOLO 0 0 0
    IPHASE 0
    PLAYOFFS 0 1
    ISBUS 0 0
    BUSCOMP 0 0 0 0 0
    SHOWINMIX 1 0.6667 0.5 1 0.5 0 0 0
    FREEMODE 0
    SEL 0
    REC 0 0 0 0 0 0 0
    VU 2
    TRACKHEIGHT 0 0 0
    INQ 0 0 0 0.5 100 0 0 100
    NCHAN 2
    FX 1
    TRACKID {6CC0AECC-A9BA-4C28-9A15-F6DCE9F7913F}
    PERF 0
    MIDIOUT 0
    MAINSEND 1 0
    <ITEM
      POSITION 0
      SNAPOFFS 0
      LENGTH 203.999949
      LOOP 1
      ALLTAKES 0
      FADEIN 1 0 0 1 0 0
      FADEOUT 1 0 0 1 0 0
      MUTE 0
      SEL 0
      IGUID {D4BD5054-FA32-4C7C-9F91-E41C3D708E32}
      IID 2
      NAME Una_furtiva_lagrima.mid
      VOLPAN 1 0 1 -1
      SOFFS 0 0
      PLAYRATE 1 1 0 -1 0 0.0025
      CHANMODE 0
      GUID {0195E081-C092-4F53-BD1A-D9FA6BEBE52A}
      <SOURCE MIDI
        HASDATA 1 1024 QN
        CCINTERP 32
        POOLEDEVTS {6C5BFA70-43C0-45BD-BFA1-32B9D9F5FB6E}
        <X 0 0
          /1kC+wA=
        >
        E 0 c0 34 00
        E 0 e0 00 40
        E 27648 90 41 5a
        E 512 80 41 00
        E 0 90 3a 5a
        E 512 80 3a 00
        E 0 90 3a 5a
        E 512 80 3a 00
        E 0 90 3a 5a
        E 1024 80 3a 00
        E 0 90 3a 5a
        E 512 80 3a 00
        E 0 90 3a 67
        E 384 80 3a 00
        E 0 90 39 5a
        E 128 80 39 00
        E 0 90 3c 5a
        E 1536 80 3c 00
        E 1024 90 42 5a
        E 512 80 42 00
        E 0 90 3c 5a
        E 512 80 3c 00
        E 0 90 3c 60
        E 512 80 3c 00
        E 0 80 3d 00
        E 0 90 3c 5a
        E 0 90 3d 5a
        E 0 90 3f 5a
        E 512 80 3f 00
        E 0 90 3d 5a
        E 512 80 3d 00
        E 0 90 3c 60
        E 512 80 3c 00
        E 0 90 3a 5a
        E 1024 80 3a 00
        E 2048 90 41 5a
        E 512 80 41 00
        E 0 90 40 5a
        E 512 80 40 00
        E 0 90 41 5a
        E 512 80 41 00
        E 0 90 44 67
        E 1024 80 44 00
        E 0 90 42 5a
        E 512 80 42 00
        E 0 90 40 5a
        E 896 80 40 00
        E 0 90 41 5a
        E 128 80 41 00
        E 0 90 41 5a
        E 512 80 41 00
        E 512 90 41 67
        E 1024 80 41 00
        E 0 90 3f 5a
        E 512 80 3f 00
        E 0 90 41 5a
        E 512 80 41 00
        E 0 90 3f 60
        E 512 80 3f 00
        E 0 90 3d 5a
        E 512 80 3d 00
        E 0 90 3c 5a
        E 512 80 3c 00
        E 0 90 3a 60
        E 512 80 3a 00
        E 0 90 35 5a
        E 1024 80 35 00
        E 2048 90 41 3f
        E 512 80 41 00
        E 0 90 3c 3f
        E 512 80 3c 00
        E 0 90 3c 3f
        E 512 80 3c 00
        E 0 90 3d 3f
        E 512 80 3d 00
        E 0 80 3f 00
        E 0 80 3d 00
        E 0 90 3f 3f
        E 0 90 3d 3f
        E 0 90 3c 3f
        E 512 80 3c 00
        E 0 90 3a 3f
        E 512 80 3a 00
        E 0 90 3c 3f
        E 1024 80 3c 00
        E 2048 90 41 3f
        E 512 80 41 00
        E 0 90 42 3f
        E 512 80 42 00
        E 0 90 3f 3f
        E 512 80 3f 00
        E 0 90 3d 3f
        E 512 80 3d 00
        E 0 90 3c 3f
        E 512 80 3c 00
        E 0 90 3a 3f
        E 512 80 3a 00
        E 0 90 41 3f
        E 3072 80 41 00
        E 0 90 41 7e
        E 1536 80 41 00
        E 0 90 3d 7e
        E 512 80 3d 00
        E 512 90 41 7e
        E 512 80 41 00
        E 0 90 44 7e
        E 512 80 44 00
        E 0 90 42 7e
        E 512 80 42 00
        E 0 90 41 7e
        E 512 80 41 00
        E 0 90 3f 7e
        E 512 80 3f 00
        E 0 90 41 7e
        E 512 80 41 00
        E 0 90 42 7e
        E 512 80 42 00
        E 0 90 3d 7e
        E 1024 80 3d 00
        E 0 90 38 7e
        E 384 80 38 00
        E 0 90 38 7e
        E 128 80 38 00
        E 0 90 41 7f
        E 1024 80 41 00
        E 0 90 41 7e
        E 0 90 3f 7e
        E 512 80 3f 00
        E 0 90 3d 7e
        E 1024 80 3d 00
        E 5120 90 41 3f
        E 512 80 41 00
        E 0 90 3a 3f
        E 512 80 3a 00
        E 0 90 3a 3f
        E 512 80 3a 00
        E 0 90 3a 3f
        E 1024 80 3a 00
        E 0 90 3a 3f
        E 512 80 3a 00
        E 0 90 3a 3f
        E 384 80 3a 00
        E 0 90 39 3f
        E 128 80 39 00
        E 0 90 3c 3f
        E 1024 80 3c 00
        E 1536 90 42 3f
        E 512 80 42 00
        E 0 90 3c 3f
        E 512 80 3c 00
        E 0 90 3c 3f
        E 512 80 3c 00
        E 0 80 3d 00
        E 0 90 3c 3f
        E 0 90 3d 3f
        E 0 90 3f 3f
        E 512 80 3f 00
        E 0 90 3d 3f
        E 512 80 3d 00
        E 0 90 3c 45
        E 512 80 3c 00
        E 0 90 3a 3f
        E 1024 80 3a 00
        E 2048 90 41 3f
        E 512 80 41 00
        E 0 90 40 3f
        E 512 80 40 00
        E 0 90 41 3f
        E 512 80 41 00
        E 0 90 44 4c
        E 1024 80 44 00
        E 0 90 42 3f
        E 512 80 42 00
        E 0 90 40 3f
        E 1280 80 40 00
        E 0 90 41 3f
        E 256 80 41 00
        E 0 90 41 3f
        E 1024 80 41 00
        E 0 90 41 2d
        E 512 80 41 00
        E 0 90 41 2d
        E 512 80 41 00
        E 0 90 3f 2d
        E 768 80 3f 00
        E 0 90 3f 2d
        E 256 80 3f 00
        E 0 90 3f 2d
        E 512 80 3f 00
        E 0 90 3d 2d
        E 512 80 3d 00
        E 0 90 3d 2d
        E 512 80 3d 00
        E 0 90 3c 2d
        E 1024 80 3c 00
        E 1536 90 41 2d
        E 512 80 41 00
        E 0 90 41 3a
        E 768 80 41 00
        E 0 90 3c 2d
        E 256 80 3c 00
        E 0 90 3c 2d
        E 256 80 3c 00
        E 0 90 3c 2d
        E 256 80 3c 00
        E 0 90 3f 3a
        E 768 80 3f 00
        E 0 90 3d 2d
        E 256 80 3d 00
        E 0 90 3c 2d
        E 256 80 3c 00
        E 0 90 3a 2d
        E 256 80 3a 00
        E 0 90 3c 2d
        E 1024 80 3c 00
        E 1536 90 41 2d
        E 512 80 41 00
        E 0 90 41 3a
        E 768 80 41 00
        E 0 90 3c 2d
        E 256 80 3c 00
        E 0 90 3c 2d
        E 256 80 3c 00
        E 0 90 3c 2d
        E 256 80 3c 00
        E 0 90 3f 3a
        E 768 80 3f 00
        E 0 90 3d 2d
        E 256 80 3d 00
        E 0 90 3c 2d
        E 256 80 3c 00
        E 0 90 3a 2d
        E 256 80 3a 00
        E 0 90 41 2d
        <X 3072 0
          /1kC/gA=
        >
        E 0 80 41 00
        E 0 90 43 7e
        E 512 80 43 00
        E 0 90 41 7e
        E 512 80 41 00
        E 0 90 3e 7e
        E 512 80 3e 00
        E 0 90 41 7e
        E 512 80 41 00
        E 0 90 3f 7e
        E 512 80 3f 00
        E 0 90 3c 7f
        E 512 80 3c 00
        E 0 90 3a 7e
        E 1536 80 3a 00
        E 0 90 3b 3f
        E 256 80 3b 00
        E 0 90 3c 3f
        E 256 80 3c 00
        E 0 90 3e 3f
        E 256 80 3e 00
        E 0 90 3f 3f
        E 256 80 3f 00
        E 0 90 41 3f
        E 256 80 41 00
        E 0 90 43 3f
        E 256 80 43 00
        E 0 90 43 3f
        E 512 80 43 00
        E 0 90 3a 3f
        E 512 80 3a 00
        E 0 90 3a 45
        E 512 80 3a 00
        E 0 90 3c 3f
        E 512 80 3c 00
        E 0 90 3e 3f
        E 512 80 3e 00
        E 0 90 3c 3f
        E 512 80 3c 00
        E 0 90 3a 3f
        E 512 80 3a 00
        E 1024 90 41 4c
        E 1536 80 41 00
        E 0 90 43 3f
        E 512 80 43 00
        E 0 90 41 3f
        E 512 80 41 00
        E 0 90 3e 45
        E 512 80 3e 00
        E 0 90 41 3f
        E 256 80 41 00
        E 0 90 40 3f
        E 256 80 40 00
        E 0 90 43 3f
        E 256 80 43 00
        E 0 90 41 3f
        E 256 80 41 00
        E 0 90 3f 3f
        E 256 80 3f 00
        E 0 90 3c 3f
        E 256 80 3c 00
        E 0 90 3a 3f
        E 1536 80 3a 00
        E 0 90 3c 3f
        E 512 80 3c 00
        E 0 90 3e 3f
        E 256 80 3e 00
        E 0 90 3f 3f
        E 256 80 3f 00
        E 0 90 41 3f
        E 256 80 41 00
        E 0 90 43 3f
        E 256 80 43 00
        E 0 90 43 3f
        E 512 80 43 00
        E 0 90 3a 3f
        E 512 80 3a 00
        E 0 90 3a 3f
        E 512 80 3a 00
        E 0 90 39 3f
        E 1024 80 39 00
        E 0 80 37 00
        E 0 80 35 00
        E 0 80 37 00
        E 0 80 39 00
        E 0 80 3a 00
        E 0 80 3c 00
        E 0 80 3a 00
        E 0 80 39 00
        E 0 80 3a 00
        E 0 80 3c 00
        E 0 80 3e 00
        E 0 80 3f 00
        E 0 80 3e 00
        E 0 80 3c 00
        E 0 80 3e 00
        E 0 80 3f 00
        E 0 80 41 00
        E 0 80 43 00
        E 0 80 41 00
        E 0 80 3f 00
        E 0 80 3c 00
        E 0 80 39 00
        E 0 80 35 00
        E 0 90 37 3f
        E 0 90 35 3f
        E 0 90 37 3f
        E 0 90 39 3f
        E 0 90 3a 3f
        E 0 90 3c 3f
        E 0 90 3a 3f
        E 0 90 39 3f
        E 0 90 3a 3f
        E 0 90 3c 3f
        E 0 90 3e 3f
        E 0 90 3f 3f
        E 0 90 3e 3f
        E 0 90 3c 3f
        E 0 90 3e 3f
        E 0 90 3f 3f
        E 0 90 41 3f
        E 0 90 43 3f
        E 0 90 41 3f
        E 0 90 3f 3f
        E 0 90 3c 3f
        E 0 90 39 3f
        E 0 90 35 3f
        E 0 90 3e 3f
        E 384 80 3e 00
        E 0 90 3c 3f
        E 128 80 3c 00
        E 0 90 3a 3f
        E 512 80 3a 00
        E 11776 90 39 3f
        E 1024 80 39 00
        E 0 80 37 00
        E 0 80 35 00
        E 0 80 37 00
        E 0 80 39 00
        E 0 80 3a 00
        E 0 80 3c 00
        E 0 80 3a 00
        E 0 80 39 00
        E 0 80 3a 00
        E 0 80 3c 00
        E 0 80 3e 00
        E 0 80 3f 00
        E 0 80 3e 00
        E 0 80 3c 00
        E 0 80 3e 00
        E 0 80 3f 00
        E 0 80 41 00
        E 0 80 45 00
        E 0 80 43 00
        E 0 80 3f 00
        E 0 80 3c 00
        E 0 90 37 3f
        E 0 90 35 3f
        E 0 90 37 3f
        E 0 90 39 3f
        E 0 90 3a 3f
        E 0 90 3c 3f
        E 0 90 3a 3f
        E 0 90 39 3f
        E 0 90 3a 3f
        E 0 90 3c 3f
        E 0 90 3e 3f
        E 0 90 3f 3f
        E 0 90 3e 3f
        E 0 90 3c 3f
        E 0 90 3e 3f
        E 0 90 3f 3f
        E 0 90 41 3f
        E 0 90 45 3f
        E 0 90 43 3f
        E 0 90 3f 3f
        E 0 90 3c 3f
        E 0 90 39 3f
        E 1024 80 39 00
        E 0 80 3c 00
        E 0 80 3f 00
        E 0 90 39 7e
        E 0 90 3c 7e
        E 0 90 3f 7e
        E 0 90 43 7e
        E 1024 80 43 00
        E 0 80 39 00
        E 0 80 3c 00
        E 0 80 3f 00
        E 0 90 39 3f
        E 0 90 3c 3f
        E 0 90 3f 3f
        E 0 90 42 3f
        E 1536 80 42 00
        E 0 90 41 3f
        E 1535 80 41 00
        E 1 b0 7b 00
        CHASE_CC_TAKEOFFS 1
        GUID {4F6D718D-2EE6-4CC0-A4E6-1B3185D0A5DD}
        IGNTEMPO 0 120 4 4
        SRCCOLOR 2
      >
    >
  >
  <TRACK {53F31067-B818-4F54-9896-26AD1B5A3D12}
    NAME Piano
    PEAKCOL 16576
    BEAT -1
    AUTOMODE 0
    VOLPAN 1 0 -1 -1 1
    MUTESOLO 0 0 0
    IPHASE 0
    PLAYOFFS 0 1
    ISBUS 0 0
    BUSCOMP 0 0 0 0 0
    SHOWINMIX 1 0.6667 0.5 1 0.5 0 0 0
    FREEMODE 0
    SEL 0
    REC 0 0 0 0 0 0 0
    VU 2
    TRACKHEIGHT 0 0 0
    INQ 0 0 0 0.5 100 0 0 100
    NCHAN 2
    FX 1
    TRACKID {53F31067-B818-4F54-9896-26AD1B5A3D12}
    PERF 0
    MIDIOUT 0
    MAINSEND 1 0
    <ITEM
      POSITION 0
      SNAPOFFS 0
      LENGTH 193.333285
      LOOP 1
      ALLTAKES 0
      FADEIN 1 0 0 1 0 0
      FADEOUT 1 0 0 1 0 0
      MUTE 0
      SEL 0
      IGUID {BB74C7DD-337C-495A-B96A-C7F6524AB998}
      IID 3
      NAME "Piano - Una_furtiva_lagrima.mid"
      VOLPAN 1 0 1 -1
      SOFFS 0 0
      PLAYRATE 1 1 0 -1 0 0.0025
      CHANMODE 0
      GUID {D9D0D2A4-CD66-4F8C-B5E7-80B2B9213B61}
      <SOURCE MIDI
        HASDATA 1 1024 QN
        CCINTERP 32
        POOLEDEVTS {FA78CEA6-6939-4F6F-8E79-2599CFBB01B4}
        <X 0 0 0 0 3 Piano
          /wNQaWFubw==
        >
        <X 0 0
          /1kC+wA=
        >
        E 0 c1 00 00
        E 0 e1 00 40
        E 3072 91 41 3f
        E 512 81 41 00
        E 0 91 3a 3f
        E 512 81 3a 00
        E 0 91 3a 45
        E 512 81 3a 00
        E 0 91 3a 3f
        E 1024 81 3a 00
        E 0 91 3a 3f
        E 512 81 3a 00
        E 0 91 3a 3f
        E 384 81 3a 00
        E 0 91 39 3f
        E 128 81 39 00
        E 0 91 3c 3f
        E 1536 81 3c 00
        E 1024 91 42 3f
        E 512 81 42 00
        E 0 91 3c 3f
        E 512 81 3c 00
        E 0 91 3c 45
        E 512 81 3c 00
        E 0 91 3c 3f
        E 1024 81 3c 00
        E 0 91 3c 3f
        E 512 81 3c 00
        E 0 91 3c 3f
        E 384 81 3c 00
        E 0 91 3a 3f
        E 128 81 3a 00
        E 0 91 3d 3f
        E 1536 81 3d 00
        E 1024 91 41 3f
        E 512 81 41 00
        E 0 81 42 00
        E 0 81 41 00
        E 0 91 42 3f
        E 0 91 41 3f
        E 0 91 40 3f
        E 512 81 40 00
        E 0 91 41 3f
        E 512 81 41 00
        E 0 91 44 4c
        E 1024 81 44 00
        E 0 91 42 3f
        E 512 81 42 00
        E 0 91 41 3f
        E 1536 81 41 00
        E 0 91 3f 3f
        E 512 81 3f 00
        E 0 81 41 00
        E 0 81 3f 00
        E 0 91 41 3f
        E 0 91 3f 3f
        E 0 91 3d 3f
        E 512 81 3d 00
        E 0 91 3c 3f
        E 512 81 3c 00
        E 0 91 3a 45
        E 512 81 3a 00
        E 0 91 42 3f
        E 256 81 42 00
        E 0 91 41 3f
        E 256 81 41 00
        E 0 91 40 3f
        E 256 81 40 00
        E 0 91 41 3f
        E 256 81 41 00
        E 0 91 39 45
        E 512 81 39 00
        E 0 91 42 3f
        E 256 81 42 00
        E 0 91 41 3f
        E 256 81 41 00
        E 0 91 40 3f
        E 256 81 40 00
        E 0 91 41 3f
        E 256 81 41 00
        E 0 91 3a 45
        E 512 81 3a 00
        E 7168 91 46 3f
        E 384 81 46 00
        E 0 91 45 3f
        E 128 81 45 00
        E 0 91 48 3f
        E 512 81 48 00
        E 5120 91 48 3f
        E 384 81 48 00
        E 0 91 46 3f
        E 128 81 46 00
        E 0 91 49 3f
        E 512 81 49 00
        E 512 91 3d 45
        E 0 91 46 45
        E 1024 81 3d 00
        E 0 81 46 00
        E 512 91 3f 45
        E 0 91 48 45
        E 1024 81 3f 00
        E 0 81 48 00
        E 512 91 41 45
        E 0 91 49 45
        E 1024 81 41 00
        E 0 81 49 00
        E 512 91 41 45
        E 0 91 49 45
        E 1024 81 41 00
        E 0 81 49 00
        E 512 91 3c 3f
        E 0 91 42 3f
        E 0 91 48 3f
        E 1024 81 3c 00
        E 0 81 42 00
        E 0 81 48 00
        E 512 91 3d 3f
        E 0 91 43 3f
        E 0 91 46 3f
        E 1024 81 3d 00
        E 0 81 43 00
        E 0 81 46 00
        E 512 91 41 3f
        E 0 91 45 3f
        E 512 81 41 00
        E 0 81 45 00
        E 0 91 3c 3f
        E 512 81 3c 00
        E 0 91 3c 45
        E 512 81 3c 00
        E 0 91 3d 3f
        E 0 91 46 3f
        E 256 81 3d 00
        E 0 81 46 00
        E 0 91 3f 3f
        E 128 81 3f 00
        E 0 91 3d 3f
        E 128 81 3d 00
        E 0 91 3c 3f
        E 512 81 3c 00
        E 0 91 3a 3f
        E 512 81 3a 00
        E 0 91 39 3f
        E 0 91 45 3f
        E 1536 81 39 00
        E 0 81 45 00
        E 0 91 3a 3f
        E 0 91 46 3f
        E 512 81 3a 00
        E 0 81 46 00
        E 1024 91 4d 3f
        E 0 91 45 3f
        E 512 81 4d 00
        E 0 91 48 3f
        E 512 81 48 00
        E 0 91 48 45
        E 512 81 45 00
        E 0 81 48 00
        E 0 91 49 3f
        E 0 91 46 3f
        E 256 81 49 00
        E 0 91 4b 3f
        E 128 81 4b 00
        E 0 91 49 3f
        E 128 81 46 00
        E 0 81 49 00
        E 0 91 48 3f
        E 512 81 48 00
        E 0 91 46 3f
        E 512 81 46 00
        E 0 91 45 45
        E 1024 81 45 00
        E 512 91 3d 45
        E 0 91 46 45
        E 1024 81 3d 00
        E 0 81 46 00
        E 512 91 3c 3f
        E 0 91 45 3f
        E 1024 81 3c 00
        E 0 81 45 00
        E 2048 91 41 7f
        E 0 91 44 7f
        E 1024 81 41 00
        E 0 81 44 00
        E 512 91 41 7f
        E 0 91 44 7f
        E 1024 81 41 00
        E 0 81 44 00
        E 512 91 42 7f
        E 0 91 46 7f
        E 1024 81 42 00
        E 0 81 46 00
        E 512 91 42 7f
        E 0 91 46 7f
        E 1024 81 42 00
        E 0 81 46 00
        E 512 91 41 7f
        E 0 91 44 7f
        E 1024 81 41 00
        E 0 81 44 00
        E 512 91 3f 7f
        E 0 91 48 7f
        E 1024 81 3f 00
        E 0 81 48 00
        E 512 91 41 7f
        E 0 91 49 7f
        E 1024 81 41 00
        E 0 81 49 00
        E 512 81 54 00
        E 0 81 55 00
        E 0 91 54 3f
        E 0 91 55 3f
        E 0 91 4b 3f
        E 0 91 57 3f
        E 512 81 4b 00
        E 0 81 57 00
        E 0 91 49 3f
        E 0 91 55 3f
        E 512 81 49 00
        E 0 81 55 00
        E 0 91 48 3f
        E 0 91 54 3f
        E 512 81 48 00
        E 0 81 54 00
        E 0 91 46 3f
        E 0 91 52 3f
        E 512 81 46 00
        E 0 81 52 00
        E 7168 91 46 3f
        E 0 91 52 3f
        E 384 81 46 00
        E 0 81 52 00
        E 0 91 45 3f
        E 0 91 51 3f
        E 128 81 45 00
        E 0 81 51 00
        E 0 91 48 3f
        E 0 91 54 3f
        E 512 81 48 00
        E 0 81 54 00
        E 5120 91 48 3f
        E 0 91 54 3f
        E 384 81 48 00
        E 0 81 54 00
        E 0 91 46 3f
        E 0 91 52 3f
        E 128 81 46 00
        E 0 81 52 00
        E 0 91 49 3f
        E 0 91 55 3f
        E 512 81 49 00
        E 0 81 55 00
        E 512 91 3d 45
        E 0 91 46 45
        E 1024 81 3d 00
        E 0 81 46 00
        E 512 91 3f 45
        E 0 91 48 45
        E 1024 81 3f 00
        E 0 81 48 00
        E 512 91 41 3f
        E 0 91 49 3f
        E 1024 81 41 00
        E 0 81 49 00
        E 512 91 41 3f
        E 0 91 49 3f
        E 1024 81 41 00
        E 0 81 49 00
        E 512 91 3c 3f
        E 0 91 42 3f
        E 0 91 48 3f
        E 1024 81 3c 00
        E 0 81 42 00
        E 0 81 48 00
        E 512 91 3d 3f
        E 0 91 43 3f
        E 0 91 46 3f
        E 1024 81 3d 00
        E 0 81 43 00
        E 0 81 46 00
        E 512 91 41 3f
        E 0 91 45 3f
        E 512 81 41 00
        E 0 81 45 00
        E 0 91 3c 3f
        E 512 81 3c 00
        E 0 91 3c 45
        E 512 81 3c 00
        E 0 91 3d 3f
        E 0 91 46 3f
        E 256 81 3d 00
        E 0 81 46 00
        E 0 91 3f 3f
        E 128 81 3f 00
        E 0 91 3d 3f
        E 128 81 3d 00
        E 0 91 3c 3f
        E 512 81 3c 00
        E 0 91 3a 3f
        E 512 81 3a 00
        E 0 91 39 3f
        E 0 91 45 3f
        E 1536 81 39 00
        E 0 81 45 00
        E 0 91 3a 3f
        E 0 91 46 3f
        E 512 81 3a 00
        E 0 81 46 00
        E 1024 91 4d 3f
        E 0 91 45 3f
        E 512 81 4d 00
        E 0 91 48 3f
        E 512 81 48 00
        E 0 91 48 45
        E 512 81 45 00
        E 0 81 48 00
        E 0 91 49 3f
        E 0 91 46 3f
        E 256 81 49 00
        E 0 91 4b 3f
        E 128 81 4b 00
        E 0 91 49 3f
        E 128 81 46 00
        E 0 81 49 00
        E 0 91 48 3f
        E 512 81 48 00
        E 0 91 46 3f
        E 512 81 46 00
        E 0 91 45 45
        E 1024 81 45 00
        E 512 91 3d 45
        E 0 91 46 45
        E 1024 81 3d 00
        E 0 81 46 00
        E 512 91 3c 45
        E 0 91 45 45
        E 512 81 3c 00
        E 0 81 45 00
        E 0 91 41 3f
        E 0 91 45 3f
        E 512 81 41 00
        E 0 81 45 00
        E 0 91 43 3f
        E 0 91 46 3f
        E 512 81 43 00
        E 0 81 46 00
        E 0 91 45 3f
        E 0 91 48 3f
        E 512 81 45 00
        E 0 81 48 00
        E 0 91 46 3f
        E 0 91 4a 3f
        E 512 81 46 00
        E 0 81 4a 00
        E 0 91 48 3f
        E 0 91 4b 3f
        <X 512 0
          /1kC/gA=
        >
        E 0 81 48 00
        E 0 81 4b 00
        E 0 91 4b 7f
        E 0 91 4f 7f
        E 512 81 4b 00
        E 0 81 4f 00
        E 0 91 4a 7e
        E 0 91 4d 7e
        E 512 81 4a 00
        E 0 81 4d 00
        E 0 91 46 7e
        E 0 91 4a 7e
        E 512 81 46 00
        E 0 81 4a 00
        E 0 91 4a 7e
        E 0 91 4d 7e
        E 512 81 4a 00
        E 0 81 4d 00
        E 0 91 48 7e
        E 0 91 4b 7e
        E 512 81 48 00
        E 0 81 4b 00
        E 0 91 45 7e
        E 0 91 48 7e
        E 512 81 45 00
        E 0 81 48 00
        E 0 91 46 7e
        E 512 81 46 00
        E 0 91 3e 7f
        E 0 91 43 7f
        E 0 91 46 7f
        E 512 81 3e 00
        E 0 81 43 00
        E 0 81 46 00
        E 0 91 3e 7f
        E 0 91 43 7f
        E 0 91 46 7f
        E 512 81 3e 00
        E 0 81 43 00
        E 0 81 46 00
        E 0 91 3f 7f
        E 0 91 43 7f
        E 0 91 48 7f
        E 1024 81 3f 00
        E 0 81 43 00
        E 0 81 48 00
        E 1024 91 3e 7f
        E 0 91 41 7f
        E 0 91 46 7f
        E 512 81 3e 00
        E 0 81 41 00
        E 0 81 46 00
        E 0 91 3e 7f
        E 0 91 41 7f
        E 0 91 46 7f
        E 512 81 3e 00
        E 0 81 41 00
        E 0 81 46 00
        E 512 91 3c 7f
        E 0 91 41 7f
        E 0 91 45 7f
        E 512 81 3c 00
        E 0 81 41 00
        E 0 81 45 00
        E 0 91 3c 7f
        E 0 91 41 7f
        E 0 91 45 7f
        E 512 81 3c 00
        E 0 81 41 00
        E 0 81 45 00
        E 0 91 4f 7f
        E 0 91 57 7f
        E 512 81 4f 00
        E 0 81 57 00
        E 0 91 4d 7e
        E 0 91 56 7e
        E 512 81 4d 00
        E 0 81 56 00
        E 0 91 4a 7e
        E 0 91 52 7e
        E 512 81 4a 00
        E 0 81 52 00
        E 0 91 4d 7f
        E 0 91 56 7f
        E 512 81 4d 00
        E 0 81 56 00
        E 0 91 4b 7e
        E 0 91 54 7e
        E 512 81 4b 00
        E 0 81 54 00
        E 0 91 48 7e
        E 0 91 51 7e
        E 512 81 48 00
        E 0 81 51 00
        E 0 91 4b 7f
        E 0 91 4f 7f
        E 512 81 4b 00
        E 0 81 4f 00
        E 0 91 4a 7e
        E 0 91 4d 7e
        E 512 81 4a 00
        E 0 81 4d 00
        E 0 91 46 7e
        E 0 91 4a 7e
        E 512 81 46 00
        E 0 81 4a 00
        E 0 91 4a 7f
        E 0 91 4d 7f
        E 512 81 4a 00
        E 0 81 4d 00
        E 0 91 48 7e
        E 0 91 4b 7e
        E 512 81 48 00
        E 0 81 4b 00
        E 0 91 45 7e
        E 0 91 48 7e
        E 512 81 45 00
        E 0 81 48 00
        E 512 91 43 7f
        E 0 91 46 7f
        E 512 81 43 00
        E 0 81 46 00
        E 0 91 43 7f
        E 0 91 46 7f
        E 512 81 43 00
        E 0 81 46 00
        E 512 91 3f 7f
        E 0 91 43 7f
        E 0 91 48 7f
        E 512 81 3f 00
        E 0 81 43 00
        E 0 81 48 00
        E 0 91 3f 7f
        E 0 91 43 7f
        E 0 91 48 7f
        E 512 81 3f 00
        E 0 81 43 00
        E 0 81 48 00
        E 0 91 3e 7e
        E 0 91 41 7e
        E 0 91 46 7e
        E 1024 81 3e 00
        E 0 81 41 00
        E 0 81 46 00
        E 512 91 3c 7e
        E 0 91 41 7e
        E 0 91 45 7e
        E 1024 81 3c 00
        E 0 81 41 00
        E 0 81 45 00
        E 1024 91 4f 7e
        E 256 81 4f 00
        E 0 91 4d 7e
        E 256 81 4d 00
        E 0 91 4c 7e
        E 256 81 4c 00
        E 0 91 4d 7e
        E 256 81 4d 00
        E 0 91 48 7f
        E 512 81 48 00
        E 0 91 4f 7e
        E 256 81 4f 00
        E 0 91 4d 7e
        E 256 81 4d 00
        E 0 91 4c 7e
        E 256 81 4c 00
        E 0 91 4d 7e
        E 256 81 4d 00
        E 0 91 46 7f
        E 512 81 46 00
        E 0 91 42 7e
        E 256 81 42 00
        E 0 91 41 7e
        E 256 81 41 00
        E 0 91 40 7e
        E 256 81 40 00
        E 0 91 41 7e
        E 256 81 41 00
        E 0 91 39 7f
        E 512 81 39 00
        E 0 91 42 7e
        E 256 81 42 00
        E 0 91 41 7e
        E 256 81 41 00
        E 0 91 40 7e
        E 256 81 40 00
        E 0 91 41 7e
        E 256 81 41 00
        E 0 91 3a 7e
        E 512 81 3a 00
        E 1024 91 3e 7f
        E 0 91 41 7f
        E 0 91 46 7f
        E 512 81 3e 00
        E 0 81 41 00
        E 0 81 46 00
        E 0 91 3e 7f
        E 0 91 41 7f
        E 0 91 46 7f
        E 512 81 3e 00
        E 0 81 41 00
        E 0 81 46 00
        E 0 91 3e 7f
        E 0 91 41 7f
        E 0 91 46 7f
        E 512 81 3e 00
        E 0 81 41 00
        E 0 81 46 00
        E 0 91 3e 7f
        E 0 91 41 7f
        E 0 91 46 7f
        E 1023 81 3e 00
        E 0 81 41 00
        E 0 81 46 00
        E 1 b0 7b 00
        CHASE_CC_TAKEOFFS 1
        GUID {56268DB3-1A3C-4628-9701-173005CFD1D1}
        IGNTEMPO 0 120 4 4
        SRCCOLOR 3
      >
    >
  >
  <TRACK {D88D9795-316A-43F4-997D-501C3280CD73}
    NAME Piano
    PEAKCOL 16576
    BEAT -1
    AUTOMODE 0
    VOLPAN 1 0 -1 -1 1
    MUTESOLO 0 0 0
    IPHASE 0
    PLAYOFFS 0 1
    ISBUS 0 0
    BUSCOMP 0 0 0 0 0
    SHOWINMIX 1 0.6667 0.5 1 0.5 0 0 0
    FREEMODE 0
    SEL 0
    REC 0 0 0 0 0 0 0
    VU 2
    TRACKHEIGHT 0 0 0
    INQ 0 0 0 0.5 100 0 0 100
    NCHAN 2
    FX 1
    TRACKID {D88D9795-316A-43F4-997D-501C3280CD73}
    PERF 0
    MIDIOUT 0
    MAINSEND 1 0
    <ITEM
      POSITION 0
      SNAPOFFS 0
      LENGTH 193.333285
      LOOP 1
      ALLTAKES 0
      FADEIN 1 0 0 1 0 0
      FADEOUT 1 0 0 1 0 0
      MUTE 0
      SEL 0
      IGUID {486C7B78-7BB3-4610-A9D6-6B8190D6A099}
      IID 4
      NAME "Piano - Una_furtiva_lagrima.mid"
      VOLPAN 1 0 1 -1
      SOFFS 0 0
      PLAYRATE 1 1 0 -1 0 0.0025
      CHANMODE 0
      GUID {87AD3D50-FC8F-4FAA-BD2A-24922A9FCDA8}
      <SOURCE MIDI
        HASDATA 1 1024 QN
        CCINTERP 32
        POOLEDEVTS {CF5EE20E-BF29-4AC3-820D-068DE7DDC71F}
        <X 0 0 0 0 3 Piano
          /wNQaWFubw==
        >
        <X 0 0
          /1kC+wA=
        >
        E 0 c1 00 00
        E 0 e1 00 40
        E 0 91 22 60
        E 256 81 22 00
        E 0 91 29 5a
        E 256 81 29 00
        E 0 91 2e 5a
        E 256 81 2e 00
        E 0 91 31 5a
        E 256 81 31 00
        E 0 91 2e 5a
        E 256 81 2e 00
        E 0 91 29 5a
        E 256 81 29 00
        E 0 91 22 60
        E 256 81 22 00
        E 0 91 29 5a
        E 256 81 29 00
        E 0 91 2e 5a
        E 256 81 2e 00
        E 0 91 31 5a
        E 256 81 31 00
        E 0 91 2e 5a
        E 256 81 2e 00
        E 0 91 29 5a
        E 256 81 29 00
        E 0 91 22 60
        E 256 81 22 00
        E 0 91 29 5a
        E 256 81 29 00
        E 0 91 2e 5a
        E 256 81 2e 00
        E 0 91 31 5a
        E 256 81 31 00
        E 0 91 2e 5a
        E 256 81 2e 00
        E 0 91 29 5a
        E 256 81 29 00
        E 0 91 22 60
        E 256 81 22 00
        E 0 91 29 5a
        E 256 81 29 00
        E 0 91 2e 5a
        E 256 81 2e 00
        E 0 91 31 5a
        E 256 81 31 00
        E 0 91 2e 5a
        E 256 81 2e 00
        E 0 91 29 5a
        E 256 81 29 00
        E 0 91 24 60
        E 256 81 24 00
        E 0 91 29 5a
        E 256 81 29 00
        E 0 91 2d 5a
        E 256 81 2d 00
        E 0 91 33 5a
        E 256 81 33 00
        E 0 91 2d 5a
        E 256 81 2d 00
        E 0 91 29 5a
        E 256 81 29 00
        E 0 91 24 60
        E 256 81 24 00
        E 0 91 29 5a
        E 256 81 29 00
        E 0 91 2d 5a
        E 256 81 2d 00
        E 0 91 33 5a
        E 256 81 33 00
        E 0 91 2d 5a
        E 256 81 2d 00
        E 0 91 29 5a
        E 256 81 29 00
        E 0 91 21 60
        E 256 81 21 00
        E 0 91 2a 5a
        E 256 81 2a 00
        E 0 91 30 5a
        E 256 81 30 00
        E 0 91 33 5a
        E 256 81 33 00
        E 0 91 30 5a
        E 256 81 30 00
        E 0 91 2a 5a
        E 256 81 2a 00
        E 0 91 21 60
        E 256 81 21 00
        E 0 91 2a 5a
        E 256 81 2a 00
        E 0 91 30 5a
        E 256 81 30 00
        E 0 91 33 5a
        E 256 81 33 00
        E 0 91 30 5a
        E 256 81 30 00
        E 0 91 2a 5a
        E 256 81 2a 00
        E 0 91 22 60
        E 256 81 22 00
        E 0 91 29 5a
        E 256 81 29 00
        E 0 91 2e 5a
        E 256 81 2e 00
        E 0 91 31 5a
        E 256 81 31 00
        E 0 91 2e 5a
        E 256 81 2e 00
        E 0 91 29 5a
        E 256 81 29 00
        E 0 91 22 60
        E 256 81 22 00
        E 0 91 29 5a
        E 256 81 29 00
        E 0 91 2e 5a
        E 256 81 2e 00
        E 0 91 31 5a
        E 256 81 31 00
        E 0 91 2e 5a
        E 256 81 2e 00
        E 0 91 29 5a
        E 256 81 29 00
        E 0 91 22 60
        E 256 81 22 00
        E 0 91 29 5a
        E 256 81 29 00
        E 0 91 2e 5a
        E 256 81 2e 00
        E 0 91 31 5a
        E 256 81 31 00
        E 0 91 2e 5a
        E 256 81 2e 00
        E 0 91 29 5a
        E 256 81 29 00
        E 0 91 24 60
        E 256 81 24 00
        E 0 91 2c 5a
        E 256 81 2c 00
        E 0 91 33 5a
        E 256 81 33 00
        E 0 91 36 5a
        E 256 81 36 00
        E 0 91 33 5a
        E 256 81 33 00
        E 0 91 2c 5a
        E 256 81 2c 00
        E 0 91 25 60
        E 256 81 25 00
        E 0 91 2c 5a
        E 256 81 2c 00
        E 0 91 31 5a
        E 256 81 31 00
        E 0 91 35 5a
        E 256 81 35 00
        E 0 91 31 5a
        E 256 81 31 00
        E 0 91 2c 5a
        E 256 81 2c 00
        E 0 91 27 60
        E 256 81 27 00
        E 0 91 2a 5a
        E 256 81 2a 00
        E 0 91 30 5a
        E 256 81 30 00
        E 0 91 33 5a
        E 256 81 33 00
        E 0 91 30 5a
        E 256 81 30 00
        E 0 91 2a 5a
        E 256 81 2a 00
        E 0 91 29 5a
        E 0 91 2e 5a
        E 0 91 31 5a
        E 512 81 29 00
        E 0 81 2e 00
        E 0 81 31 00
        E 1024 91 29 5a
        E 0 91 30 5a
        E 512 81 29 00
        E 0 81 30 00
        E 1024 91 2e 45
        E 256 81 2e 00
        E 0 91 35 3f
        E 256 81 35 00
        E 0 91 3a 3f
        E 256 81 3a 00
        E 0 91 3d 3f
        E 256 81 3d 00
        E 0 91 3a 3f
        E 256 81 3a 00
        E 0 91 35 3f
        E 256 81 35 00
        E 0 91 2e 45
        E 256 81 2e 00
        E 0 91 35 3f
        E 256 81 35 00
        E 0 91 3a 3f
        E 256 81 3a 00
        E 0 91 3d 3f
        E 256 81 3d 00
        E 0 91 3a 3f
        E 256 81 3a 00
        E 0 91 35 3f
        E 256 81 35 00
        E 0 91 2e 45
        E 256 81 2e 00
        E 0 91 35 3f
        E 256 81 35 00
        E 0 91 3a 3f
        E 256 81 3a 00
        E 0 91 3d 3f
        E 256 81 3d 00
        E 0 91 3a 3f
        E 256 81 3a 00
        E 0 91 35 3f
        E 256 81 35 00
        E 0 91 2e 45
        E 256 81 2e 00
        E 0 91 35 3f
        E 256 81 35 00
        E 0 91 3a 3f
        E 256 81 3a 00
        E 0 91 3d 3f
        E 256 81 3d 00
        E 0 91 3a 3f
        E 256 81 3a 00
        E 0 91 35 3f
        E 256 81 35 00
        E 0 91 30 45
        E 256 81 30 00
        E 0 91 35 3f
        E 256 81 35 00
        E 0 91 39 3f
        E 256 81 39 00
        E 0 91 3f 3f
        E 256 81 3f 00
        E 0 91 39 3f
        E 256 81 39 00
        E 0 91 35 3f
        E 256 81 35 00
        E 0 91 30 45
        E 256 81 30 00
        E 0 91 35 3f
        E 256 81 35 00
        E 0 91 39 3f
        E 256 81 39 00
        E 0 91 3f 3f
        E 256 81 3f 00
        E 0 91 39 3f
        E 256 81 39 00
        E 0 91 35 3f
        E 256 81 35 00
        E 0 91 2d 45
        E 256 81 2d 00
        E 0 91 36 3f
        E 256 81 36 00
        E 0 91 3c 3f
        E 256 81 3c 00
        E 0 91 3f 3f
        E 256 81 3f 00
        E 0 91 3c 3f
        E 256 81 3c 00
        E 0 91 36 3f
        E 256 81 36 00
        E 0 91 2d 45
        E 256 81 2d 00
        E 0 91 36 3f
        E 256 81 36 00
        E 0 91 3c 3f
        E 256 81 3c 00
        E 0 91 3f 3f
        E 256 81 3f 00
        E 0 91 3c 3f
        E 256 81 3c 00
        E 0 91 36 3f
        E 256 81 36 00
        E 0 91 2e 45
        E 256 81 2e 00
        E 0 91 35 3f
        E 256 81 35 00
        E 0 91 3a 3f
        E 256 81 3a 00
        E 0 91 3d 3f
        E 256 81 3d 00
        E 0 91 3a 3f
        E 256 81 3a 00
        E 0 91 35 3f
        E 256 81 35 00
        E 0 91 2e 45
        E 256 81 2e 00
        E 0 91 35 3f
        E 256 81 35 00
        E 0 91 3a 3f
        E 256 81 3a 00
        E 0 91 3d 3f
        E 256 81 3d 00
        E 0 91 3a 3f
        E 256 81 3a 00
        E 0 91 35 3f
        E 256 81 35 00
        E 0 91 2e 45
        E 256 81 2e 00
        E 0 91 35 3f
        E 256 81 35 00
        E 0 91 3a 3f
        E 256 81 3a 00
        E 0 91 3d 3f
        E 256 81 3d 00
        E 0 91 3a 3f
        E 256 81 3a 00
        E 0 91 35 3f
        E 256 81 35 00
        E 0 91 2c 45
        E 256 81 2c 00
        E 0 91 36 3f
        E 256 81 36 00
        E 0 91 3c 3f
        E 256 81 3c 00
        E 0 91 3f 3f
        E 256 81 3f 00
        E 0 91 3c 3f
        E 256 81 3c 00
        E 0 91 36 3f
        E 256 81 36 00
        E 0 91 31 45
        E 256 81 31 00
        E 0 91 35 3f
        E 256 81 35 00
        E 0 91 38 3f
        E 256 81 38 00
        E 0 91 3d 3f
        E 256 81 3d 00
        E 0 91 38 3f
        E 256 81 38 00
        E 0 91 35 3f
        E 256 81 35 00
        E 0 91 31 45
        E 256 81 31 00
        E 0 91 35 3f
        E 256 81 35 00
        E 0 91 38 3f
        E 256 81 38 00
        E 0 91 3d 3f
        E 256 81 3d 00
        E 0 91 38 3f
        E 256 81 38 00
        E 0 91 35 3f
        E 256 81 35 00
        E 0 91 27 3f
        E 0 91 33 3f
        E 1024 81 27 00
        E 0 81 33 00
        E 512 91 28 3f
        E 0 91 34 3f
        E 1024 81 28 00
        E 0 81 34 00
        E 512 91 29 45
        E 256 81 29 00
        E 0 91 2d 3f
        E 256 81 2d 00
        E 0 91 30 3f
        E 256 81 30 00
        E 0 91 35 3f
        E 256 81 35 00
        E 0 91 30 3f
        E 256 81 30 00
        E 0 91 2d 3f
        E 256 81 2d 00
        E 0 91 29 45
        E 256 81 29 00
        E 0 91 2e 3f
        E 256 81 2e 00
        E 0 91 31 3f
        E 256 81 31 00
        E 0 91 35 3f
        E 256 81 35 00
        E 0 91 31 3f
        E 256 81 31 00
        E 0 91 2e 3f
        E 256 81 2e 00
        E 0 91 29 45
        E 256 81 29 00
        E 0 91 2d 3f
        E 256 81 2d 00
        E 0 91 30 3f
        E 256 81 30 00
        E 0 91 35 3f
        E 256 81 35 00
        E 0 91 30 3f
        E 256 81 30 00
        E 0 91 2d 3f
        E 256 81 2d 00
        E 0 91 29 45
        E 256 81 29 00
        E 0 91 2e 3f
        E 256 81 2e 00
        E 0 91 31 3f
        E 256 81 31 00
        E 0 91 35 3f
        E 256 81 35 00
        E 0 91 31 3f
        E 256 81 31 00
        E 0 91 2e 3f
        E 256 81 2e 00
        E 0 91 29 45
        E 256 81 29 00
        E 0 91 30 3f
        E 256 81 30 00
        E 0 91 35 3f
        E 256 81 35 00
        E 0 91 39 3f
        E 256 81 39 00
        E 0 91 35 3f
        E 256 81 35 00
        E 0 91 30 3f
        E 256 81 30 00
        E 0 91 29 45
        E 256 81 29 00
        E 0 91 31 3f
        E 256 81 31 00
        E 0 91 35 3f
        E 256 81 35 00
        E 0 91 3a 3f
        E 256 81 3a 00
        E 0 91 35 3f
        E 256 81 35 00
        E 0 91 31 3f
        E 256 81 31 00
        E 0 91 29 45
        E 256 81 29 00
        E 0 91 30 3f
        E 256 81 30 00
        E 0 91 35 3f
        E 256 81 35 00
        E 0 91 39 3f
        E 256 81 39 00
        E 0 91 35 3f
        E 256 81 35 00
        E 0 91 30 3f
        E 256 81 30 00
        E 0 91 29 45
        E 256 81 29 00
        E 0 91 31 3f
        E 256 81 31 00
        E 0 91 35 3f
        E 256 81 35 00
        E 0 91 3a 3f
        E 256 81 3a 00
        E 0 91 35 3f
        E 256 81 35 00
        E 0 91 31 3f
        E 256 81 31 00
        E 0 91 29 45
        E 256 81 29 00
        E 0 91 2d 3f
        E 256 81 2d 00
        E 0 91 30 3f
        E 256 81 30 00
        E 0 91 35 3f
        E 256 81 35 00
        E 0 91 30 3f
        E 256 81 30 00
        E 0 91 2d 3f
        E 256 81 2d 00
        E 0 91 29 3f
        E 256 81 29 00
        E 0 91 2d 3f
        E 256 81 2d 00
        E 0 91 30 3f
        E 256 81 30 00
        E 0 91 35 3f
        E 256 81 35 00
        E 0 91 39 3f
        E 256 81 39 00
        E 0 91 3c 3f
        E 256 81 3c 00
        E 0 91 25 4c
        E 256 81 25 00
        E 0 91 2c 3f
        E 256 81 2c 00
        E 0 91 31 3f
        E 256 81 31 00
        E 0 91 35 3f
        E 256 81 35 00
        E 0 91 31 3f
        E 256 81 31 00
        E 0 91 2c 3f
        E 256 81 2c 00
        E 0 91 25 45
        E 256 81 25 00
        E 0 91 2c 3f
        E 256 81 2c 00
        E 0 91 31 3f
        E 256 81 31 00
        E 0 91 35 3f
        E 256 81 35 00
        E 0 91 31 3f
        E 256 81 31 00
        E 0 91 2c 3f
        E 256 81 2c 00
        E 0 91 2a 45
        E 256 81 2a 00
        E 0 91 2e 3f
        E 256 81 2e 00
        E 0 91 33 3f
        E 256 81 33 00
        E 0 91 36 3f
        E 256 81 36 00
        E 0 91 33 3f
        E 256 81 33 00
        E 0 91 2e 3f
        E 256 81 2e 00
        E 0 91 2a 45
        E 256 81 2a 00
        E 0 91 2e 3f
        E 256 81 2e 00
        E 0 91 33 3f
        E 256 81 33 00
        E 0 91 36 3f
        E 256 81 36 00
        E 0 91 33 3f
        E 256 81 33 00
        E 0 91 2e 3f
        E 256 81 2e 00
        E 0 91 2c 45
        E 256 81 2c 00
        E 0 91 31 3f
        E 256 81 31 00
        E 0 91 35 3f
        E 256 81 35 00
        E 0 91 38 3f
        E 256 81 38 00
        E 0 91 35 3f
        E 256 81 35 00
        E 0 91 31 3f
        E 256 81 31 00
        E 0 91 2c 45
        E 256 81 2c 00
        E 0 91 30 3f
        E 256 81 30 00
        E 0 91 33 3f
        E 256 81 33 00
        E 0 91 36 3f
        E 256 81 36 00
        E 0 91 33 3f
        E 256 81 33 00
        E 0 91 30 3f
        E 256 81 30 00
        E 0 91 25 45
        E 256 81 25 00
        E 0 91 2c 3f
        E 256 81 2c 00
        E 0 91 31 3f
        E 256 81 31 00
        E 0 91 35 3f
        E 256 81 35 00
        E 0 91 31 3f
        E 256 81 31 00
        E 0 91 2c 3f
        E 256 81 2c 00
        E 0 91 29 45
        E 256 81 29 00
        E 0 91 2d 3f
        E 256 81 2d 00
        E 0 91 30 3f
        E 256 81 30 00
        E 0 91 33 3f
        E 256 81 33 00
        E 0 91 30 3f
        E 256 81 30 00
        E 0 91 2d 3f
        E 256 81 2d 00
        E 0 91 2e 45
        E 256 81 2e 00
        E 0 91 35 3f
        E 256 81 35 00
        E 0 91 3a 3f
        E 256 81 3a 00
        E 0 91 3d 3f
        E 256 81 3d 00
        E 0 91 3a 3f
        E 256 81 3a 00
        E 0 91 35 3f
        E 256 81 35 00
        E 0 91 2e 45
        E 256 81 2e 00
        E 0 91 35 3f
        E 256 81 35 00
        E 0 91 3a 3f
        E 256 81 3a 00
        E 0 91 3d 3f
        E 256 81 3d 00
        E 0 91 3a 3f
        E 256 81 3a 00
        E 0 91 35 3f
        E 256 81 35 00
        E 0 91 2e 45
        E 256 81 2e 00
        E 0 91 35 3f
        E 256 81 35 00
        E 0 91 3a 3f
        E 256 81 3a 00
        E 0 91 3d 3f
        E 256 81 3d 00
        E 0 91 3a 3f
        E 256 81 3a 00
        E 0 91 35 3f
        E 256 81 35 00
        E 0 91 2e 45
        E 256 81 2e 00
        E 0 91 35 3f
        E 256 81 35 00
        E 0 91 3a 3f
        E 256 81 3a 00
        E 0 91 3d 3f
        E 256 81 3d 00
        E 0 91 3a 3f
        E 256 81 3a 00
        E 0 91 35 3f
        E 256 81 35 00
        E 0 91 30 45
        E 256 81 30 00
        E 0 91 35 3f
        E 256 81 35 00
        E 0 91 39 3f
        E 256 81 39 00
        E 0 91 3f 3f
        E 256 81 3f 00
        E 0 91 39 3f
        E 256 81 39 00
        E 0 91 35 3f
        E 256 81 35 00
        E 0 91 30 45
        E 256 81 30 00
        E 0 91 35 3f
        E 256 81 35 00
        E 0 91 39 3f
        E 256 81 39 00
        E 0 91 3f 3f
        E 256 81 3f 00
        E 0 91 39 3f
        E 256 81 39 00
        E 0 91 35 3f
        E 256 81 35 00
        E 0 91 2d 45
        E 256 81 2d 00
        E 0 91 36 3f
        E 256 81 36 00
        E 0 91 3c 3f
        E 256 81 3c 00
        E 0 91 3f 3f
        E 256 81 3f 00
        E 0 91 3c 3f
        E 256 81 3c 00
        E 0 91 36 3f
        E 256 81 36 00
        E 0 91 2d 45
        E 256 81 2d 00
        E 0 91 36 3f
        E 256 81 36 00
        E 0 91 3c 3f
        E 256 81 3c 00
        E 0 91 3f 3f
        E 256 81 3f 00
        E 0 91 3c 3f
        E 256 81 3c 00
        E 0 91 36 3f
        E 256 81 36 00
        E 0 91 2e 45
        E 256 81 2e 00
        E 0 91 35 3f
        E 256 81 35 00
        E 0 91 3a 3f
        E 256 81 3a 00
        E 0 91 3d 3f
        E 256 81 3d 00
        E 0 91 3a 3f
        E 256 81 3a 00
        E 0 91 35 3f
        E 256 81 35 00
        E 0 91 2e 45
        E 256 81 2e 00
        E 0 91 35 3f
        E 256 81 35 00
        E 0 91 3a 3f
        E 256 81 3a 00
        E 0 91 3d 3f
        E 256 81 3d 00
        E 0 91 3a 3f
        E 256 81 3a 00
        E 0 91 35 3f
        E 256 81 35 00
        E 0 91 2e 45
        E 256 81 2e 00
        E 0 91 35 3f
        E 256 81 35 00
        E 0 91 3a 3f
        E 256 81 3a 00
        E 0 91 3d 3f
        E 256 81 3d 00
        E 0 91 3a 3f
        E 256 81 3a 00
        E 0 91 35 3f
        E 256 81 35 00
        E 0 91 2c 45
        E 256 81 2c 00
        E 0 91 36 3f
        E 256 81 36 00
        E 0 91 3c 3f
        E 256 81 3c 00
        E 0 91 3f 3f
        E 256 81 3f 00
        E 0 91 3c 3f
        E 256 81 3c 00
        E 0 91 36 3f
        E 256 81 36 00
        E 0 91 31 45
        E 256 81 31 00
        E 0 91 35 3f
        E 256 81 35 00
        E 0 91 38 3f
        E 256 81 38 00
        E 0 91 3d 3f
        E 256 81 3d 00
        E 0 91 38 3f
        E 256 81 38 00
        E 0 91 35 3f
        E 256 81 35 00
        E 0 91 31 45
        E 256 81 31 00
        E 0 91 35 3f
        E 256 81 35 00
        E 0 91 38 3f
        E 256 81 38 00
        E 0 91 3d 3f
        E 256 81 3d 00
        E 0 91 38 3f
        E 256 81 38 00
        E 0 91 35 3f
        E 256 81 35 00
        E 0 91 27 3f
        E 0 91 33 3f
        E 1024 81 27 00
        E 0 81 33 00
        E 512 91 28 3f
        E 0 91 34 3f
        E 1024 81 28 00
        E 0 81 34 00
        E 512 91 29 45
        E 256 81 29 00
        E 0 91 2d 3f
        E 256 81 2d 00
        E 0 91 30 3f
        E 256 81 30 00
        E 0 91 35 3f
        E 256 81 35 00
        E 0 91 30 3f
        E 256 81 30 00
        E 0 91 2d 3f
        E 256 81 2d 00
        E 0 91 29 45
        E 256 81 29 00
        E 0 91 2e 3f
        E 256 81 2e 00
        E 0 91 31 3f
        E 256 81 31 00
        E 0 91 35 3f
        E 256 81 35 00
        E 0 91 31 3f
        E 256 81 31 00
        E 0 91 2e 3f
        E 256 81 2e 00
        E 0 91 29 45
        E 256 81 29 00
        E 0 91 2d 3f
        E 256 81 2d 00
        E 0 91 30 3f
        E 256 81 30 00
        E 0 91 35 3f
        E 256 81 35 00
        E 0 91 30 3f
        E 256 81 30 00
        E 0 91 2d 3f
        E 256 81 2d 00
        E 0 91 29 45
        E 256 81 29 00
        E 0 91 2e 3f
        E 256 81 2e 00
        E 0 91 31 3f
        E 256 81 31 00
        E 0 91 35 3f
        E 256 81 35 00
        E 0 91 31 3f
        E 256 81 31 00
        E 0 91 2e 3f
        E 256 81 2e 00
        E 0 91 29 45
        E 256 81 29 00
        E 0 91 30 3f
        E 256 81 30 00
        E 0 91 35 3f
        E 256 81 35 00
        E 0 91 39 3f
        E 256 81 39 00
        E 0 91 35 3f
        E 256 81 35 00
        E 0 91 30 3f
        E 256 81 30 00
        E 0 91 29 45
        E 256 81 29 00
        E 0 91 31 3f
        E 256 81 31 00
        E 0 91 35 3f
        E 256 81 35 00
        E 0 91 3a 3f
        E 256 81 3a 00
        E 0 91 35 3f
        E 256 81 35 00
        E 0 91 31 3f
        E 256 81 31 00
        E 0 91 29 45
        E 256 81 29 00
        E 0 91 30 3f
        E 256 81 30 00
        E 0 91 35 3f
        E 256 81 35 00
        E 0 91 39 3f
        E 256 81 39 00
        E 0 91 35 3f
        E 256 81 35 00
        E 0 91 30 3f
        E 256 81 30 00
        E 0 91 29 45
        E 256 81 29 00
        E 0 91 31 3f
        E 256 81 31 00
        E 0 91 35 3f
        E 256 81 35 00
        E 0 91 3a 3f
        E 256 81 3a 00
        E 0 91 35 3f
        E 256 81 35 00
        E 0 91 31 3f
        E 256 81 31 00
        E 0 91 29 45
        E 256 81 29 00
        E 0 91 35 3f
        E 256 81 35 00
        E 0 91 39 3f
        E 256 81 39 00
        E 0 91 3c 3f
        E 256 81 3c 00
        E 0 91 35 3f
        E 256 81 35 00
        E 0 91 3c 3f
        E 256 81 3c 00
        E 0 91 35 3f
        E 256 81 35 00
        E 0 91 41 3f
        E 256 81 41 00
        E 0 91 35 3f
        E 256 81 35 00
        E 0 91 41 3f
        E 256 81 41 00
        E 0 91 35 3f
        E 256 81 35 00
        E 0 91 41 3f
        <X 256 0
          /1kC/gA=
        >
        E 0 81 41 00
        E 0 91 2e 3f
        E 256 81 2e 00
        E 0 91 35 3f
        E 256 81 35 00
        E 0 91 3a 3f
        E 0 91 3e 3f
        E 256 81 3a 00
        E 0 81 3e 00
        E 0 91 35 3f
        E 256 81 35 00
        E 0 91 3a 3f
        E 0 91 3e 3f
        E 256 81 3a 00
        E 0 81 3e 00
        E 0 91 35 3f
        E 256 81 35 00
        E 0 91 29 45
        E 256 81 29 00
        E 0 91 35 3f
        E 256 81 35 00
        E 0 91 39 3f
        E 0 91 3f 3f
        E 256 81 39 00
        E 0 81 3f 00
        E 0 91 35 3f
        E 256 81 35 00
        E 0 91 39 3f
        E 0 91 3f 3f
        E 256 81 39 00
        E 0 81 3f 00
        E 0 91 35 3f
        E 256 81 35 00
        E 0 91 2b 3f
        E 256 81 2b 00
        E 0 91 2e 3f
        E 256 81 2e 00
        E 0 91 32 3f
        E 256 81 32 00
        E 0 91 37 3f
        E 256 81 37 00
        E 0 91 32 3f
        E 256 81 32 00
        E 0 91 2e 3f
        E 256 81 2e 00
        E 0 91 27 3f
        E 0 91 33 3f
        E 1024 81 27 00
        E 0 81 33 00
        E 512 91 29 45
        E 256 81 29 00
        E 0 91 32 3f
        E 256 81 32 00
        E 0 91 35 3f
        E 256 81 35 00
        E 0 91 3a 3f
        E 256 81 3a 00
        E 0 91 35 3f
        E 256 81 35 00
        E 0 91 32 3f
        E 256 81 32 00
        E 0 91 29 45
        E 256 81 29 00
        E 0 91 33 3f
        E 256 81 33 00
        E 0 91 35 3f
        E 256 81 35 00
        E 0 91 39 3f
        E 256 81 39 00
        E 0 91 35 3f
        E 256 81 35 00
        E 0 91 33 3f
        E 256 81 33 00
        E 0 91 2e 45
        E 256 81 2e 00
        E 0 91 35 3f
        E 256 81 35 00
        E 0 91 3a 3f
        E 0 91 3e 3f
        E 256 81 3a 00
        E 0 81 3e 00
        E 0 91 35 3f
        E 256 81 35 00
        E 0 91 3a 3f
        E 0 91 3e 3f
        E 256 81 3a 00
        E 0 81 3e 00
        E 0 91 35 3f
        E 256 81 35 00
        E 0 91 29 45
        E 256 81 29 00
        E 0 91 35 3f
        E 256 81 35 00
        E 0 91 39 3f
        E 0 91 3f 3f
        E 256 81 39 00
        E 0 81 3f 00
        E 0 91 35 3f
        E 256 81 35 00
        E 0 91 3c 3f
        E 0 91 3f 3f
        E 256 81 3c 00
        E 0 81 3f 00
        E 0 91 35 3f
        E 256 81 35 00
        E 0 91 2e 45
        E 256 81 2e 00
        E 0 91 35 3f
        E 256 81 35 00
        E 0 91 3a 3f
        E 0 91 3e 3f
        E 256 81 3a 00
        E 0 81 3e 00
        E 0 91 35 3f
        E 256 81 35 00
        E 0 91 3a 3f
        E 0 91 3e 3f
        E 256 81 3a 00
        E 0 81 3e 00
        E 0 91 35 3f
        E 256 81 35 00
        E 0 91 29 45
        E 256 81 29 00
        E 0 91 35 3f
        E 256 81 35 00
        E 0 91 3c 3f
        E 0 91 3f 3f
        E 256 81 3c 00
        E 0 81 3f 00
        E 0 91 35 3f
        E 256 81 35 00
        E 0 91 3c 3f
        E 0 91 3f 3f
        E 256 81 3c 00
        E 0 81 3f 00
        E 0 91 35 3f
        E 256 81 35 00
        E 0 91 2b 3f
        E 256 81 2b 00
        E 0 91 2e 3f
        E 256 81 2e 00
        E 0 91 32 3f
        E 256 81 32 00
        E 0 91 37 3f
        E 256 81 37 00
        E 0 91 32 3f
        E 256 81 32 00
        E 0 91 2e 3f
        E 256 81 2e 00
        E 0 91 27 3f
        E 0 91 33 3f
        E 512 81 27 00
        E 0 81 33 00
        E 1024 91 29 3f
        E 0 91 35 3f
        E 1024 81 29 00
        E 0 81 35 00
        E 512 91 29 3f
        E 0 91 35 3f
        E 1024 81 29 00
        E 0 81 35 00
        E 512 91 3a 45
        E 0 91 3e 45
        E 1024 81 3a 00
        E 0 81 3e 00
        E 512 91 35 45
        E 0 91 39 45
        E 0 91 3f 45
        E 1024 81 35 00
        E 0 81 39 00
        E 0 81 3f 00
        E 512 91 3a 45
        E 0 91 3e 45
        E 1024 81 3a 00
        E 0 81 3e 00
        E 512 91 29 45
        E 0 91 30 45
        E 0 91 33 45
        E 1024 81 29 00
        E 0 81 30 00
        E 0 81 33 00
        E 512 91 2e 3f
        E 0 91 32 3f
        E 512 81 2e 00
        E 0 81 32 00
        E 1024 91 2e 45
        E 512 81 2e 00
        E 0 91 29 45
        E 512 81 29 00
        E 0 91 26 45
        E 512 81 26 00
        E 0 91 22 45
        E 1023 81 22 00
        E 1 b0 7b 00
        CHASE_CC_TAKEOFFS 1
        GUID {E0B35A5E-22EF-4181-93EE-8611039D6FD1}
        IGNTEMPO 0 120 4 4
        SRCCOLOR 4
      >
    >
  >
  <TRACK {C22EC5B4-0971-4D4E-BB97-2B30ACCDD9C5}
    NAME Tags
    PEAKCOL 16576
    BEAT -1
    AUTOMODE 0
    VOLPAN 1 0 -1 -1 1
    MUTESOLO 0 0 0
    IPHASE 0
    PLAYOFFS 0 1
    ISBUS 0 0
    BUSCOMP 0 0 0 0 0
    SHOWINMIX 1 0.6667 0.5 1 0.5 0 0 0
    FREEMODE 0
    SEL 1
    REC 0 0 0 0 0 0 0
    VU 2
    TRACKHEIGHT 0 0 0
    INQ 0 0 0 0.5 100 0 0 100
    NCHAN 2
    FX 1
    TRACKID {C22EC5B4-0971-4D4E-BB97-2B30ACCDD9C5}
    PERF 0
    MIDIOUT -1
    MAINSEND 1 0
    <ITEM
      POSITION 34.15151927433908
      SNAPOFFS 0
      LENGTH 0.91391666666667
      LOOP 1
      ALLTAKES 0
      FADEIN 1 0.01 0 1 0 0
      FADEOUT 1 0.01 0 1 0 0
      MUTE 0
      SEL 1
      IGUID {4EF4C2E7-A28F-419E-8A51-A328ED40AFAC}
      IID 5
      NAME dolce.mp3
      VOLPAN 1 0 1 -1
      SOFFS 0
      PLAYRATE 1 1 0 -1 0 0.0025
      CHANMODE 0
      GUID {F7C080CB-B0EF-4BC4-A2C3-CF3A938EDDBA}
      <SOURCE MP3
        FILE "G:\\Personal Research (Blind music)\Blind-Music-Helper\TTS Tags\dolce.mp3" 1
      >
    >
    <ITEM
      POSITION 79.66503418027423
      SNAPOFFS 0
      LENGTH 1.46591666666667
      LOOP 1
      ALLTAKES 0
      FADEIN 1 0.01 0 1 0 0
      FADEOUT 1 0.01 0 1 0 0
      MUTE 0
      SEL 0
      IGUID {D392B46C-F379-4A5E-86CC-B288C00A9FC6}
      IID 6
      NAME crescendo.mp3
      VOLPAN 1 0 1 -1
      SOFFS 0
      PLAYRATE 1 1 0 -1 0 0.0025
      CHANMODE 0
      GUID {A60093EC-B944-4F49-922A-543513D161D9}
      <SOURCE MP3
        FILE "G:\\Personal Research (Blind music)\Blind-Music-Helper\TTS Tags\crescendo.mp3" 1
      >
    >
    <ITEM
      POSITION 83.96566910087131
      SNAPOFFS 0
      LENGTH 1.00991666666667
      LOOP 1
      ALLTAKES 0
      FADEIN 1 0.01 0 1 0 0
      FADEOUT 1 0.01 0 1 0 0
      MUTE 0
      SEL 0
      IGUID {BD14F0C2-F121-45B6-9D8C-7CF72592ACBB}
      IID 7
      NAME forte.mp3
      VOLPAN 1 0 1 -1
      SOFFS 0
      PLAYRATE 1 1 0 -1 0 0.0025
      CHANMODE 0
      GUID {76F4D674-B9A6-4313-AFEC-B8BC22F349BD}
      <SOURCE MP3
        FILE "G:\\Personal Research (Blind music)\Blind-Music-Helper\TTS Tags\forte.mp3" 1
      >
    >
  >
  <EXTENSIONS
  >
>
